<?xml version="1.0" encoding="utf-8"?>
<!-- Generator: Adobe Illustrator 24.1.1, SVG Export Plug-In . SVG Version: 6.00 Build 0)  -->
<svg version="1.1" id="Layer_1" xmlns="http://www.w3.org/2000/svg" xmlns:xlink="http://www.w3.org/1999/xlink" x="0px" y="0px"
	 viewBox="0 0 713 371" style="enable-background:new 0 0 713 371;" xml:space="preserve">
<style type="text/css">
	.st0{fill:#287D5A;}
	.st1{fill:url(#SVGID_1_);}
	.st2{fill:#595A5C;}
</style>
<g>
	<path class="st0" d="M220.16,84.69c29.9,0,44.85,15.43,44.85,46.3v15.16c0,30.87-14.94,46.44-44.84,46.44
		c-30.03,0-45.06-15.57-45.06-46.44v-15.16C175.11,100.12,190.13,84.69,220.16,84.69z M213.73,68.49h-21.18V43.65h21.18V68.49z
		 M220.16,105.24c-13.15,0-19.72,7.61-19.72,22.84v20.76c0,15.37,6.57,23.05,19.72,23.05c13.01,0,19.52-7.68,19.52-23.05v-20.76
		C239.68,112.85,233.18,105.24,220.16,105.24z M247.78,68.49H226.6V43.65h21.18V68.49z M523.72,68.49h-21.18V43.65h21.18V68.49z"/>
	<path class="st0" d="M280.16,171.89v-0.08c5.46,0,10.62,0.08,21.05,0.08c-7.34-8.03-9.84-14.88-9.84-27.2
		c0-14.81,4.36-26.71,13.08-35.71c8.03-8.17,18.27-12.25,30.73-12.25c9.13,0,17.3,2.36,24.5,7.06c5.54,3.74,10.1,8.72,13.7,14.95
		l-17.23,9.76c-3.19-4.84-6.33-8.27-9.45-10.28c-3.11-2.01-6.89-3.01-11.31-3.01c-6.23,0-11.42,2.77-15.57,8.3
		c-3.88,5.26-5.81,11.83-5.81,19.72c0,11.63,3.6,20.14,10.79,25.54c4.71,3.46,10.45,3.11,17.23,3.11h35.71h0v0
		c0,11.43-9.27,20.69-20.69,20.69h-56.2C289.42,192.58,280.16,183.32,280.16,171.89z"/>
	<path class="st0" d="M602.56,192.58c8.57,0,17.13,0,25.71,0c8.3,0,15.11,0,23.27,0c7.8,0,17.06-4.09,23.38-8.66
		c10.6-7.65,16.34-21.26,15.09-34.27c-0.14-1.38-0.34-2.73-0.63-4.08c-1.33-6.44-4.27-12.5-8.35-17.64
		c-2.05-2.58-4.37-4.92-6.95-6.98c-1.98-1.59-3.97-2.67-6.16-3.6c-6.63-2.81-13.8-4.1-21-4.1h-19.4l38.79-50.11h-29.78l-55.2,70.79
		h55.71c3.96,0,7.31-0.1,11.32,0.34c3.96,0.43,7.8,2.15,10.72,4.88c3.98,3.77,5.67,9.53,5.33,15.01
		c-0.31,5.31-2.56,10.67-6.78,13.88c-5.12,3.86-12.07,4.01-18.49,3.98c-20.32-0.07-40.67-0.14-61.02-0.14h-35.09
		c4.71-4.01,8.54-9.53,11.54-16.61c2.97-7.05,4.47-14.05,4.47-20.97c0-13.42-3.4-24.28-10.19-32.58
		c-8.04-9.82-19.94-14.75-35.72-14.75c-13.83,0-24.76,3.81-32.8,11.42c-8.71,8.45-13.08,20.42-13.08,35.91
		c0,6.93,1.5,13.93,4.46,20.97c2.99,7.07,6.76,12.6,11.32,16.61h-45.26c-5.26,0-9.49-1.79-12.67-5.38
		c-3.6-4.03-5.38-9.56-5.38-16.63l0.51-106.22h-25.85v103.54c0,13.69,3.19,24.35,9.56,31.96c7.34,8.86,18.46,13.43,33.42,13.43
		h58.76c6.93,0,12.59-1.24,17.01-3.47c4.3,2.22,9.98,3.47,17.05,3.47H602.56z M527.98,153.93c-3.55,6.3-8.5,11.54-14.87,15.69
		c-13.42-8.74-20.13-20.78-20.13-36.13c0-6.08,1.26-11.42,3.74-16c3.6-6.64,9.05-9.94,16.39-9.94c6.52,0,11.56,2.49,15.16,7.46
		c3.33,4.85,5,11.01,5,18.49C533.27,140.82,531.51,147.63,527.98,153.93z"/>
</g>
<radialGradient id="SVGID_1_" cx="21.675" cy="51.5708" r="177.5567" gradientUnits="userSpaceOnUse">
	<stop  offset="0" style="stop-color:#DCDE22"/>
	<stop  offset="0.2037" style="stop-color:#B4CC36"/>
	<stop  offset="0.3847" style="stop-color:#80B241"/>
	<stop  offset="0.6434" style="stop-color:#2B9046"/>
	<stop  offset="0.8052" style="stop-color:#297D59"/>
	<stop  offset="1" style="stop-color:#2D6D5A"/>
</radialGradient>
<path class="st1" d="M27.98,57.39v122.71l122.87,12.48V43.65L27.98,57.39z M117.5,163.24c-1.79,1.79-4.13,2.69-6.48,2.69
	c-2.34,0-4.69-0.89-6.48-2.68c-4.32-4.32-6.8-10.3-6.8-16.42V97.62c0-5.1-4.15-9.26-9.26-9.26s-9.26,4.15-9.26,9.26v35.3
	c0,5.06-4.1,9.16-9.16,9.16c-5.06,0-9.16-4.1-9.16-9.16l0-38.82c-1.08,0.45-2.27,0.7-3.52,0.7c-5.06,0-9.16-4.1-9.16-9.16
	c0-3.66,1.59-7.01,4.36-9.19c4.57-3.6,11.99-3.2,17.78,0.4c4.85-4.24,11.19-6.81,18.12-6.81c15.21,0,27.58,12.37,27.58,27.58v49.21
	c0,1.29,0.52,2.55,1.43,3.46C121.08,153.86,121.08,159.66,117.5,163.24z"/>
<g>
	<g>
		<path class="st2" d="M49.15,253.42v15.87c0,1.63,0.41,2.91,1.22,3.86c0.75,0.88,1.76,1.32,3.03,1.32h1.27v4.83H53.3
			c-3.61,0-6.27-1.12-7.96-3.37c-0.91,0.65-2.04,1.19-3.39,1.61c-1.35,0.42-2.63,0.63-3.83,0.63c-3.39,0-5.94-0.99-7.67-2.98
			c-1.6-1.86-2.39-4.49-2.39-7.91v-1.9c0-3.84,1.06-6.71,3.17-8.59c1.72-1.53,4.02-2.29,6.89-2.29c1.82,0,3.52,0.34,5.08,1.02v-2.1
			H49.15z M37.23,250.3h-4.98v-5.86h4.98V250.3z M38.6,259.33c-3.06,0-4.59,1.79-4.59,5.37v3.22c0,3.61,1.53,5.42,4.59,5.42
			c1.76,0,3.37-0.63,4.83-1.9c-0.16-0.81-0.24-1.94-0.24-3.37v-7.42C42.12,259.77,40.59,259.33,38.6,259.33z M45.24,250.3h-4.98
			v-5.86h4.98V250.3z"/>
		<path class="st2" d="M71.95,254.5c7.03,0,10.55,3.63,10.55,10.89v3.03c0,7.26-3.52,10.89-10.55,10.89H53.74v-4.83h9.18
			c-1.04-1.4-1.56-3.42-1.56-6.06v-3.03C61.36,258.13,64.89,254.5,71.95,254.5z M70.44,250.3h-4.98v-5.86h4.98V250.3z M71.95,259.33
			c-3.09,0-4.64,1.79-4.64,5.37v4.35c0,3.61,1.55,5.42,4.64,5.42c3.06,0,4.59-1.81,4.59-5.42v-4.35
			C76.54,261.12,75.01,259.33,71.95,259.33z M78.45,250.3h-4.98v-5.86h4.98V250.3z"/>
		<path class="st2" d="M95.49,244.44v24.86c0,1.66,0.42,2.96,1.27,3.91c0.75,0.85,1.74,1.27,2.98,1.27h1.27v4.83h-1.37
			c-3.52,0-6.14-1.04-7.86-3.13c-1.5-1.79-2.25-4.3-2.25-7.52v-24.22H95.49z"/>
		<path class="st2" d="M100.08,274.47h7.57v-30.03h5.96v17.24c1.66-2.44,3.87-4.3,6.64-5.57c2.34-1.07,4.85-1.61,7.52-1.61
			c4.69,0,8.22,1.61,10.6,4.83c1.86,2.51,2.78,5.67,2.78,9.47c0,2.18-0.34,3.94-1.03,5.27c0.39,0.26,0.94,0.39,1.66,0.39h3.71v4.83
			h-3.86c-2.18,0-3.58-0.6-4.2-1.81c-1.63,1.2-3.81,1.81-6.54,1.81h-30.81V274.47z M127.23,259.33c-3.52,0-6.66,1.84-9.43,5.52
			c-2.15,2.83-3.55,6.04-4.2,9.62h17.24c1.46,0,2.6-0.55,3.42-1.66c0.65-0.94,0.98-2.15,0.98-3.61c0-3.09-0.73-5.52-2.2-7.28
			C131.64,260.19,129.71,259.33,127.23,259.33z"/>
		<path class="st2" d="M158.09,244.44v24.22c0,3.81-1.03,6.61-3.08,8.4c-1.73,1.5-4.13,2.25-7.23,2.25h-3.22v-4.83h3.22
			c1.46,0,2.59-0.54,3.37-1.61c0.65-0.91,0.98-2.1,0.98-3.56v-24.86H158.09z"/>
		<path class="st2" d="M171.47,244.44v34.87h-5.96v-34.87H171.47z"/>
		<path class="st2" d="M198.87,253.96c7.03,0,10.55,3.63,10.55,10.89v3.57c0,7.26-3.52,10.89-10.55,10.89
			c-7.07,0-10.6-3.63-10.6-10.89v-3.57C188.27,257.59,191.8,253.96,198.87,253.96z M197.35,250.3h-4.98v-5.86h4.98V250.3z
			 M198.87,259.33c-3.09,0-4.64,1.79-4.64,5.37v4.88c0,3.61,1.55,5.42,4.64,5.42c3.06,0,4.59-1.81,4.59-5.42v-4.88
			C203.46,261.12,201.93,259.33,198.87,259.33z M205.36,250.3h-4.98v-5.86h4.98V250.3z"/>
		<path class="st2" d="M215.67,281.35l-0.1,0.05c-0.1,0.06-0.18,0.1-0.24,0.1c-0.1,0-0.15-0.05-0.15-0.15v-4.35
			c1.14-0.78,2.88-1.37,5.23-1.76c-1.73-1.89-2.59-4.28-2.59-7.18c0-3.48,1.02-6.28,3.08-8.4c1.89-1.92,4.3-2.88,7.23-2.88
			c2.15,0,4.07,0.55,5.76,1.66c1.3,0.88,2.38,2.05,3.22,3.52l-4.05,2.29c-0.75-1.14-1.49-1.94-2.22-2.42
			c-0.73-0.47-1.62-0.71-2.66-0.71c-1.47,0-2.69,0.65-3.66,1.95c-0.91,1.24-1.37,2.78-1.37,4.64c0,2.74,0.85,4.74,2.54,6.01
			c1.11,0.81,2.46,1.22,4.05,1.22h8.4v4.35h-11.82c-0.39,0-1.24,0.01-2.54,0.12c-1.3,0.11-2.3,0.22-2.98,0.32
			C218.84,280.07,217.13,280.6,215.67,281.35z"/>
		<path class="st2" d="M250.24,244.44v24.86c0,1.66,0.42,2.96,1.27,3.91c0.75,0.85,1.74,1.27,2.98,1.27h1.27v4.83h-1.37
			c-3.52,0-6.14-1.04-7.86-3.13c-1.5-1.79-2.25-4.3-2.25-7.52v-24.22H250.24z"/>
		<path class="st2" d="M272.21,254.5c3.71,0,6.51,1.16,8.4,3.47c1.59,1.95,2.39,4.51,2.39,7.67c0,1.63-0.35,3.27-1.05,4.93
			c-0.7,1.66-1.6,2.96-2.71,3.91h8.25v4.83h-11.28c-1.66,0-3-0.26-4-0.78c-1.04,0.52-2.38,0.78-4,0.78h-13.38v-4.83h10.3
			c-1.08-0.94-1.96-2.25-2.66-3.91c-0.7-1.66-1.05-3.3-1.05-4.93c0-3.65,1.03-6.46,3.08-8.45
			C266.39,255.39,268.96,254.5,272.21,254.5z M272.21,259.33c-1.73,0-3.01,0.78-3.86,2.34c-0.59,1.07-0.88,2.33-0.88,3.76
			c0,3.61,1.58,6.45,4.74,8.5c1.5-0.98,2.66-2.2,3.49-3.69c0.83-1.48,1.25-3.08,1.25-4.81c0-1.76-0.39-3.21-1.17-4.35
			C274.93,259.92,273.74,259.33,272.21,259.33z M275.24,250.3h-5.96v-5.86h5.96V250.3z"/>
		<path class="st2" d="M318.99,279.3h-4.74c-2.18,0-3.58-0.6-4.2-1.81c-1.63,1.2-3.84,1.81-6.64,1.81h-16.85v-4.83h16.85
			c1.5,0,2.64-0.54,3.42-1.61c0.62-0.88,0.93-2.07,0.93-3.56v-4.25c0-1.73-0.41-3.04-1.22-3.96c-0.78-0.81-1.82-1.22-3.13-1.22
			h-11.28v-1.9c0-1.01,0.16-1.89,0.49-2.64c0.32-0.75,0.96-1.71,1.9-2.88l6.59-8.01h6.64l-8.64,10.6h4.3c3.52,0,6.15,0.98,7.91,2.93
			c1.59,1.79,2.39,4.36,2.39,7.72v2.98c0,2.18-0.41,3.97-1.22,5.37c0.32,0.29,0.91,0.44,1.76,0.44h4.74V279.3z"/>
		<path class="st2" d="M331.59,244.44v24.22c0,3.81-1.03,6.61-3.08,8.4c-1.73,1.5-4.13,2.25-7.23,2.25h-3.22v-4.83h3.22
			c1.46,0,2.59-0.54,3.37-1.61c0.65-0.91,0.98-2.1,0.98-3.56v-24.86H331.59z"/>
		<path class="st2" d="M371,254.5c1.86,0,3.65,0.49,5.37,1.46c1.69,0.94,2.95,2.18,3.76,3.71l-4.59,2.49
			c-1.24-1.89-2.77-2.83-4.59-2.83c-1.6,0-2.9,0.68-3.91,2.05c-0.94,1.3-1.43,3.01-1.46,5.13c0.03,3.09,1.01,5.31,2.93,6.64
			c1.24,0.88,2.75,1.32,4.54,1.32h3.47c2.6,0,3.91,1.32,3.91,3.96c0,2.02-0.54,4-1.61,5.96c-1.24,2.21-3,3.99-5.27,5.32
			c-2.6,1.53-5.71,2.29-9.33,2.29c-5.44,0-9.64-1.64-12.6-4.93c-2.54-2.8-3.81-6.37-3.81-10.69c0-3.68,0.88-6.89,2.64-9.62
			l4.25,2.88c-0.91,1.99-1.37,3.99-1.37,6.01c0,3.78,1.11,6.66,3.32,8.64c1.92,1.72,4.46,2.59,7.62,2.59c3.32,0,5.97-1.02,7.96-3.08
			c1.4-1.4,2.1-2.73,2.1-4c0-0.33-0.18-0.49-0.54-0.49h-2.73c-3.35,0-6.15-1.33-8.4-4c-1.99-2.38-2.98-5.18-2.98-8.4
			c0-3.91,1.12-7,3.37-9.28C365.06,255.54,367.71,254.5,371,254.5z M362.65,301.77h-4.98v-5.86h4.98V301.77z M370.66,301.77h-4.98
			v-5.86h4.98V301.77z"/>
		<path class="st2" d="M390.78,259.09l2.34-4.59c4.92,0.52,8.48,2.31,10.69,5.37c1.69,2.34,2.54,5.36,2.54,9.03
			c0,6.93-3.52,10.4-10.55,10.4h-10.16v-4.83h10.16c1.59,0.03,2.8-0.5,3.61-1.61c0.65-0.88,0.98-2.12,0.98-3.71
			c0-3.48-0.99-6.04-2.98-7.67C395.89,260.21,393.68,259.41,390.78,259.09z"/>
		<path class="st2" d="M422.96,254.5c3.71,0,6.43,0.98,8.16,2.93c1.56,1.79,2.34,4.44,2.34,7.96v9.08h5.27v4.83h-5.27v0.93
			c-0.07,4.17-1.22,7.26-3.47,9.28c-1.92,1.66-4.54,2.49-7.86,2.49c-3,0-5.86-0.68-8.59-2.05l1.86-4.39
			c2.02,0.94,4.02,1.42,6.01,1.42c4.07,0,6.1-2.1,6.1-6.3v-1.37h-5.23c-3.19,0-5.63-0.94-7.32-2.83c-1.69-1.86-2.54-4.54-2.54-8.06
			v-3.03C412.41,258.13,415.93,254.5,422.96,254.5z M422.96,259.33c-3.06,0-4.59,1.79-4.59,5.37v4.35c0,3.61,1.53,5.42,4.59,5.42
			h4.59v-9.77C427.55,261.12,426.02,259.33,422.96,259.33z"/>
		<path class="st2" d="M456.07,254.5c3.68,0,6.56,1.09,8.64,3.27c1.92,2.05,2.93,4.88,3.03,8.5c-2.9,2.12-4.9,4.85-6.01,8.2h10.21
			v4.83h-11.18c-2.05,0-3.63-0.31-4.74-0.93c-1.07,0.62-2.64,0.93-4.69,0.93H437.8v-4.83h12.55c-1.11-3.35-3.09-6.09-5.96-8.2
			c0.1-4.07,1.38-7.15,3.86-9.23C450.31,255.34,452.91,254.5,456.07,254.5z M456.07,259.38c-1.6,0-2.93,0.55-4,1.66
			c-1.01,1.07-1.6,2.51-1.76,4.3c2.05,1.46,3.87,4.22,5.47,8.25c0.1,0.16,0.2,0.24,0.29,0.24c0.1,0,0.18-0.08,0.24-0.24
			c1.37-3.87,3.21-6.62,5.52-8.25c-0.2-2.08-0.93-3.66-2.2-4.74C458.66,259.79,457.47,259.38,456.07,259.38z"/>
		<path class="st2" d="M523.6,279.3h-6.54c-2.05,0-3.39-0.52-4-1.56c-1.73,1.4-4.07,2.1-7.03,2.1c-3.16,0-5.55-0.94-7.18-2.83
			c-1.66,1.89-4.17,2.83-7.52,2.83c-3.45,0-6.01-1.03-7.67-3.08c-1.69,1.69-4.04,2.54-7.03,2.54h-5.62v-4.83h5.62
			c1.5,0,2.64-0.54,3.42-1.61c0.65-0.91,0.98-2.1,0.98-3.56v-14.26h5.96v14.8c0,1.73,0.41,3.04,1.22,3.96
			c0.78,0.81,1.82,1.22,3.12,1.22c1.5,0,2.64-0.54,3.42-1.61c0.62-0.88,0.93-2.07,0.93-3.56v-14.8h5.96v14.85
			c0,1.72,0.42,3.03,1.27,3.91c0.75,0.81,1.79,1.22,3.12,1.22c1.5,0,2.64-0.52,3.42-1.56c0.62-0.88,0.93-2.07,0.93-3.56v-14.85h5.96
			v14.21c0,1.82-0.26,3.47-0.78,4.93c0.33,0.2,0.81,0.29,1.47,0.29h6.59V279.3z"/>
		<path class="st2" d="M536.2,244.44v24.22c0,3.81-1.03,6.61-3.08,8.4c-1.73,1.5-4.13,2.25-7.23,2.25h-3.22v-4.83h3.22
			c1.46,0,2.59-0.54,3.37-1.61c0.65-0.91,0.98-2.1,0.98-3.56v-24.86H536.2z"/>
		<path class="st2" d="M549.58,244.44v34.87h-5.96v-34.87H549.58z"/>
		<path class="st2" d="M582.15,279.3h-3.71c-0.36,0-0.86-0.03-1.51-0.1c0,2.44-0.16,4.35-0.49,5.71c-0.33,1.37-0.91,2.64-1.76,3.81
			c-0.72,1.01-1.73,1.81-3.03,2.39c-1.3,0.59-2.73,0.88-4.3,0.88c-2.51,0-4.75-0.5-6.74-1.51l1.81-4.44
			c1.3,0.62,2.64,0.93,4.01,0.93c1.66,0,2.83-0.54,3.52-1.61c0.68-1.07,1.03-2.88,1.03-5.42v-24.95h5.96v19.29
			c0.36,0.13,0.8,0.2,1.32,0.2h3.91V279.3z M576.88,250.3h-5.96v-5.86h5.96V250.3z"/>
		<path class="st2" d="M593.82,255.03h4.3c3.52,0,6.15,0.98,7.91,2.93c1.59,1.79,2.39,4.36,2.39,7.72v2.98
			c0,3.81-1.04,6.61-3.13,8.4c-1.73,1.5-4.12,2.25-7.18,2.25h-16.85v-4.83h16.85c1.5,0,2.64-0.54,3.42-1.61
			c0.62-0.88,0.93-2.07,0.93-3.56v-4.25c0-1.73-0.41-3.04-1.22-3.96c-0.78-0.81-1.82-1.22-3.13-1.22h-11.28v-1.9
			c0-1.01,0.16-1.89,0.49-2.64c0.32-0.75,0.96-1.71,1.9-2.88l6.59-8.01h6.64L593.82,255.03z"/>
		<path class="st2" d="M630.84,279.3h-3.71c-0.36,0-0.86-0.03-1.51-0.1c0,2.44-0.16,4.35-0.49,5.71c-0.33,1.37-0.91,2.64-1.76,3.81
			c-0.72,1.01-1.73,1.81-3.03,2.39c-1.3,0.59-2.73,0.88-4.3,0.88c-2.51,0-4.75-0.5-6.74-1.51l1.81-4.44c1.3,0.62,2.64,0.93,4,0.93
			c1.66,0,2.83-0.54,3.52-1.61c0.68-1.07,1.03-2.88,1.03-5.42v-24.95h5.96v19.29c0.36,0.13,0.8,0.2,1.32,0.2h3.91V279.3z"/>
		<path class="st2" d="M664.19,279.3h-1.37c-2.51-0.03-4.51-0.7-6.01-2c-1.6,2.67-4.49,4.01-8.69,4.01c-4.23,0-7.13-1.34-8.69-4.01
			c-1.53,1.34-3.61,2-6.25,2h-3.22v-4.83h3.22c1.46,0,2.59-0.54,3.37-1.61c0.65-0.91,0.98-2.1,0.98-3.56v-3.91
			c0-7.26,3.53-10.89,10.6-10.89c7.03,0,10.55,3.63,10.55,10.89v3.91c0,1.66,0.42,2.96,1.27,3.91c0.75,0.85,1.74,1.27,2.98,1.27
			h1.27V279.3z M652.71,271.1v-6.4c0-3.58-1.53-5.37-4.59-5.37c-3.09,0-4.64,1.79-4.64,5.37v6.4c0,3.58,1.55,5.37,4.64,5.37
			C651.18,276.47,652.71,274.68,652.71,271.1z"/>
		<path class="st2" d="M676.79,244.44v24.22c0,3.81-1.03,6.61-3.08,8.4c-1.73,1.5-4.13,2.25-7.23,2.25h-3.22v-4.83h3.22
			c1.46,0,2.59-0.54,3.37-1.61c0.65-0.91,0.98-2.1,0.98-3.56v-24.86H676.79z"/>
		<path class="st2" d="M690.17,244.44v34.87h-5.96v-34.87H690.17z"/>
	</g>
	<g>
		<path class="st2" d="M27.95,338.74l4.82-3.09c1.48,2.44,4.11,3.66,7.91,3.66c4.12,0,6.17-1.59,6.17-4.77
			c0-1.61-0.56-2.78-1.69-3.52c-0.55-0.35-1.06-0.61-1.54-0.77c-0.48-0.16-1.95-0.55-4.39-1.16c-3.76-0.93-6.38-2.27-7.86-4
			c-1.32-1.51-1.98-3.14-1.98-5.74c0-3.37,1.13-5.93,3.38-7.67c1.96-1.48,4.61-2.22,7.96-2.22c5.24,0,8.9,1.72,10.99,5.16
			l-4.68,3.04c-1.48-2.09-3.63-3.13-6.46-3.13c-1.7,0-3.02,0.45-3.95,1.35c-0.77,0.77-1.16,1.8-1.16,3.09
			c0,1.58,0.56,2.33,1.69,3.14c1.03,0.74,2.76,1.41,5.21,2.02c2.25,0.55,3.79,0.97,4.63,1.28c0.84,0.31,1.69,0.75,2.56,1.33
			c2.22,1.51,3.33,4.05,3.33,7.62c0,6.75-4.1,10.13-12.3,10.13C34.44,344.48,30.23,342.57,27.95,338.74z"/>
		<path class="st2" d="M72.07,329v-1.11c0-1.54-0.34-2.66-1.01-3.35c-0.68-0.69-1.74-1.04-3.18-1.04c-2.02,0-3.7,0.8-5.01,2.41
			l-4.15-2.94c2.19-2.86,5.43-4.29,9.74-4.29c4.47,0,7.36,1.4,8.68,4.2c0.61,1.25,0.92,3.28,0.92,6.08v15.53h-4.68l-0.38-1.98
			c-0.8,0.71-1.7,1.21-2.7,1.52c-1,0.31-2.35,0.46-4.05,0.46c-3.25,0-5.5-0.68-6.75-2.03c-1.13-1.16-1.69-3.04-1.69-5.64
			c0-3.15,0.77-5.27,2.31-6.36c1.35-0.97,3.68-1.45,6.99-1.45H72.07z M72.07,333.05h-4.24c-1.58,0-2.69,0.27-3.35,0.82
			c-0.66,0.55-0.99,1.45-0.99,2.7c0,1.25,0.31,2.12,0.94,2.6c0.63,0.48,1.74,0.72,3.35,0.72c1.86,0,3.12-0.45,3.76-1.35
			c0.35-0.48,0.53-1.45,0.53-2.89V333.05z"/>
		<path class="st2" d="M84.85,318.68h5.98v13.98c0,2.57,0.35,4.36,1.06,5.35c0.58,0.9,1.53,1.35,2.85,1.35
			c1.61,0,2.73-0.64,3.38-1.93c0.51-1.13,0.77-2.96,0.77-5.5v-13.26h6.03v25.8h-4.2l-0.67-2.85c-0.68,1-1.52,1.72-2.53,2.17
			c-1.01,0.45-2.32,0.68-3.93,0.68c-4.18,0-6.85-1.59-8-4.77c-0.48-1.32-0.72-3.44-0.72-6.36V318.68z"/>
		<path class="st2" d="M127.62,344.48l-0.39-2.27c-0.06,0.06-0.16,0.14-0.29,0.24c0,0.03-0.02,0.05-0.05,0.05
			c-0.8,0.71-1.68,1.21-2.63,1.52c-0.95,0.31-2.18,0.46-3.69,0.46c-3.47,0-5.93-1-7.38-2.99c-1.29-1.77-1.93-4.47-1.93-8.1v-3.62
			c0-4.11,0.84-7.04,2.51-8.78c1.48-1.54,3.71-2.32,6.7-2.32c2.19,0,4,0.5,5.45,1.49c0.03,0.03,0.13,0.1,0.29,0.19v-10.85h5.98
			v34.96H127.62z M126.22,329.14c-0.03-2.12-0.45-3.62-1.25-4.48c-0.74-0.77-1.83-1.16-3.28-1.16c-1.54,0-2.68,0.54-3.4,1.61
			c-0.72,1.08-1.08,2.77-1.08,5.09v2.75c0,2.48,0.42,4.24,1.25,5.3c0.71,0.93,1.78,1.4,3.23,1.4c3.02,0,4.53-1.88,4.53-5.64V329.14z
			"/>
		<path class="st2" d="M139.44,315.35v-5.84h5.98v5.84H139.44z M139.44,344.48v-25.8h5.98v25.8H139.44z"/>
		<path class="st2" d="M162.97,344.46v-34.43h21.22v5.16h-14.95v9.31h12.68v5.16h-12.68v9.64h15.09v5.16H162.97z"/>
		<path class="st2" d="M190.26,344.48v-25.8h4.49l0.53,2.7c0.8-0.96,1.71-1.66,2.72-2.07c1.01-0.42,2.31-0.63,3.88-0.63
			c4.28,0,7.01,1.59,8.2,4.77c0.48,1.32,0.72,3.42,0.72,6.32v14.71h-5.98v-14.03c0-2.54-0.37-4.31-1.11-5.3
			c-0.64-0.9-1.66-1.35-3.04-1.35c-1.74,0-2.93,0.64-3.57,1.93c-0.58,1.13-0.87,2.94-0.87,5.45v13.31H190.26z"/>
		<path class="st2" d="M223,333.05v0.72c0,4.02,1.77,6.03,5.3,6.03c1.22,0,2.22-0.2,2.99-0.6c0.77-0.4,1.48-1.07,2.12-2l4.44,2.6
			c-1.06,1.67-2.37,2.87-3.93,3.59c-1.56,0.72-3.64,1.09-6.24,1.09c-3.99,0-6.82-1.08-8.49-3.23c-1.48-1.9-2.22-4.77-2.22-8.63
			v-1.78c0-4.56,0.95-7.8,2.85-9.69c1.67-1.64,4.26-2.46,7.76-2.46c3.99,0,6.8,1.09,8.44,3.28c1.45,1.9,2.17,4.85,2.17,8.87v2.22
			H223z M222.96,328.9h9.55v-0.53c0-1.8-0.47-3.15-1.4-4.05c-0.8-0.77-1.93-1.16-3.38-1.16c-1.64,0-2.86,0.51-3.66,1.54
			c-0.74,0.9-1.11,2.12-1.11,3.66V328.9z"/>
		<path class="st2" d="M244.17,344.48v-25.8h4.58l0.72,2.32c0.77-0.84,1.54-1.43,2.31-1.78c0.77-0.35,1.7-0.53,2.8-0.53
			c1.7,0,3.47,0.51,5.3,1.54l-2.56,4.92c-1.19-0.87-2.3-1.3-3.33-1.3c-1.45,0-2.48,0.72-3.09,2.17c-0.52,1.29-0.77,3.28-0.77,5.98
			v12.49H244.17z"/>
		<path class="st2" d="M277.78,342.79c-1.48,1.13-3.44,1.69-5.88,1.69c-3.37,0-5.79-1.01-7.23-3.04c-1.25-1.77-1.88-4.45-1.88-8.05
			v-3.62c0-4.15,0.84-7.09,2.51-8.82c1.48-1.51,3.74-2.27,6.8-2.27c2.77,0,4.92,0.72,6.46,2.17l0.53-2.17h4.63v24.64
			c0,4.34-1.03,7.47-3.09,9.4c-1.8,1.7-4.45,2.56-7.96,2.56c-4.44,0-7.55-1.56-9.35-4.68l4.44-2.56c0.61,0.96,1.27,1.64,1.98,2.03
			c0.71,0.38,1.61,0.58,2.7,0.58c1.93,0,3.31-0.6,4.15-1.78c0.74-1.06,1.13-2.68,1.16-4.87L277.78,342.79z M277.73,329.14
			c-0.03-2.12-0.45-3.62-1.25-4.48c-0.74-0.77-1.83-1.16-3.28-1.16c-1.54,0-2.68,0.54-3.4,1.61c-0.72,1.08-1.08,2.77-1.08,5.09v2.75
			c0,2.48,0.42,4.24,1.25,5.3c0.71,0.93,1.78,1.4,3.23,1.4c3.02,0,4.53-1.88,4.53-5.64V329.14z"/>
		<path class="st2" d="M297.07,343.51l-8.69-24.83h6.08l5.75,18.37l5.33-18.37h6.08l-9.14,27.44c-1.51,4.53-3.25,7.2-5.21,8.01
			c-1.41,0.61-3.73,0.92-6.94,0.92v-4.87c2.09,0,3.47-0.31,4.15-0.92c0.64-0.55,1.27-1.75,1.88-3.62L297.07,343.51z"/>
		<path class="st2" d="M326.19,344.48v-34.96h21.22v5.16h-14.95v9.84h12.68v5.16h-12.68v9.64h15.09v5.16H326.19z"/>
		<path class="st2" d="M354.5,323.45h-2.85v-4.77h2.85v-2.17c0-2.7,0.63-4.6,1.88-5.69c0.58-0.48,1.32-0.82,2.22-1.01
			c0.9-0.19,2.25-0.29,4.05-0.29h2.46V314h-1.21c-1.48,0-2.42,0.17-2.82,0.51c-0.4,0.34-0.6,1.17-0.6,2.48v1.69h3.91v4.77h-3.91
			v21.03h-5.98V323.45z M369.55,323.45h-2.85v-4.77h2.85v-2.17c0-1.45,0.14-2.6,0.43-3.47c0.29-0.87,0.77-1.61,1.45-2.22
			c0.58-0.48,1.32-0.82,2.22-1.01c0.9-0.19,2.25-0.29,4.05-0.29h2.8V314h-1.54c-1.48,0-2.42,0.17-2.82,0.51
			c-0.4,0.34-0.6,1.17-0.6,2.48v1.69h5.21v4.77h-5.21v21.03h-5.98V323.45z M385.22,315.64v-6.12h5.98v6.12H385.22z M385.22,344.48
			v-25.8h5.98v25.8H385.22z"/>
		<path class="st2" d="M412.85,337.25l4.44,2.51c-1.93,3.15-5.05,4.73-9.35,4.73c-3.73,0-6.43-1.13-8.1-3.38
			c-1.48-1.96-2.22-4.84-2.22-8.63v-1.54c0-4.44,0.93-7.65,2.8-9.64c1.67-1.74,4.11-2.6,7.33-2.6c4.31,0,7.35,1.59,9.11,4.77
			l-4.44,2.51c-0.64-0.93-1.28-1.58-1.9-1.93c-0.63-0.35-1.41-0.53-2.34-0.53c-1.58,0-2.73,0.56-3.47,1.69
			c-0.74,1.13-1.11,2.86-1.11,5.21v2.65c0,4.4,1.57,6.61,4.73,6.61C410.21,339.66,411.72,338.85,412.85,337.25z"/>
		<path class="st2" d="M421.53,315.64v-6.12h5.98v6.12H421.53z M421.53,344.48v-25.8h5.98v25.8H421.53z"/>
		<path class="st2" d="M439.95,333.05v0.72c0,4.02,1.77,6.03,5.3,6.03c1.22,0,2.22-0.2,2.99-0.6c0.77-0.4,1.48-1.07,2.12-2l4.44,2.6
			c-1.06,1.67-2.37,2.87-3.93,3.59c-1.56,0.72-3.64,1.09-6.24,1.09c-3.99,0-6.82-1.08-8.49-3.23c-1.48-1.9-2.22-4.77-2.22-8.63
			v-1.78c0-4.56,0.95-7.8,2.85-9.69c1.67-1.64,4.26-2.46,7.76-2.46c3.99,0,6.8,1.09,8.44,3.28c1.45,1.9,2.17,4.85,2.17,8.87v2.22
			H439.95z M439.9,328.9h9.55v-0.53c0-1.8-0.47-3.15-1.4-4.05c-0.8-0.77-1.93-1.16-3.38-1.16c-1.64,0-2.86,0.51-3.66,1.54
			c-0.74,0.9-1.11,2.12-1.11,3.66V328.9z"/>
		<path class="st2" d="M461.12,344.48v-25.8h4.48l0.53,2.7c0.8-0.96,1.71-1.66,2.72-2.07c1.01-0.42,2.31-0.63,3.88-0.63
			c4.28,0,7.01,1.59,8.2,4.77c0.48,1.32,0.72,3.42,0.72,6.32v14.71h-5.98v-14.03c0-2.54-0.37-4.31-1.11-5.3
			c-0.64-0.9-1.66-1.35-3.04-1.35c-1.74,0-2.93,0.64-3.57,1.93c-0.58,1.13-0.87,2.94-0.87,5.45v13.31H461.12z"/>
		<path class="st2" d="M503.07,337.25l4.44,2.51c-1.93,3.15-5.05,4.73-9.35,4.73c-3.73,0-6.43-1.13-8.1-3.38
			c-1.48-1.96-2.22-4.84-2.22-8.63v-1.54c0-4.44,0.93-7.65,2.8-9.64c1.67-1.74,4.11-2.6,7.33-2.6c4.31,0,7.35,1.59,9.11,4.77
			l-4.44,2.51c-0.64-0.93-1.28-1.58-1.9-1.93c-0.63-0.35-1.41-0.53-2.34-0.53c-1.58,0-2.73,0.56-3.47,1.69
			c-0.74,1.13-1.11,2.86-1.11,5.21v2.65c0,4.4,1.57,6.61,4.73,6.61C500.43,339.66,501.95,338.85,503.07,337.25z"/>
		<path class="st2" d="M518.4,343.51l-8.67-24.83h6.08l5.73,18.37l5.32-18.37h6.08l-9.13,27.44c-1.51,4.53-3.25,7.2-5.21,8.01
			c-1.41,0.61-3.73,0.92-6.94,0.92v-4.87c2.09,0,3.47-0.31,4.15-0.92c0.64-0.55,1.27-1.75,1.88-3.62L518.4,343.51z"/>
		<path class="st2" d="M565.03,334.3l5.88,0.67c-0.35,6.33-4.37,9.5-12.06,9.5c-4.63,0-7.96-1.41-9.98-4.24
			c-0.8-1.09-1.37-2.39-1.71-3.88c-0.34-1.49-0.51-3.46-0.51-5.91v-6.9c0-2.67,0.2-4.78,0.6-6.34c0.4-1.56,1.1-2.92,2.1-4.07
			c2.09-2.41,5.26-3.62,9.5-3.62c7.39,0,11.25,3.25,11.57,9.74l-5.79,0.43c-0.42-3.34-2.32-5.02-5.69-5.02
			c-2.35,0-3.96,0.79-4.82,2.36c-0.77,1.41-1.16,3.73-1.16,6.94v6.03c0,3.7,0.51,6.22,1.54,7.57c0.9,1.16,2.41,1.74,4.53,1.74
			C562.59,339.32,564.58,337.65,565.03,334.3z"/>
		<path class="st2" d="M582.59,333.05v0.72c0,4.02,1.77,6.03,5.3,6.03c1.22,0,2.22-0.2,2.99-0.6c0.77-0.4,1.48-1.07,2.12-2l4.44,2.6
			c-1.06,1.67-2.37,2.87-3.93,3.59c-1.56,0.72-3.64,1.09-6.24,1.09c-3.99,0-6.82-1.08-8.49-3.23c-1.48-1.9-2.22-4.77-2.22-8.63
			v-1.78c0-4.56,0.95-7.8,2.85-9.69c1.67-1.64,4.26-2.46,7.76-2.46c3.99,0,6.8,1.09,8.44,3.28c1.45,1.9,2.17,4.85,2.17,8.87v2.22
			H582.59z M582.54,328.9h9.55v-0.53c0-1.8-0.47-3.15-1.4-4.05c-0.8-0.77-1.93-1.16-3.38-1.16c-1.64,0-2.86,0.51-3.66,1.54
			c-0.74,0.9-1.11,2.12-1.11,3.66V328.9z"/>
		<path class="st2" d="M603.76,344.48v-25.27h4.49l0.53,2.17c0.8-0.96,1.71-1.66,2.72-2.07c1.01-0.42,2.31-0.63,3.88-0.63
			c4.28,0,7.01,1.59,8.2,4.77c0.48,1.32,0.72,3.42,0.72,6.32v14.71h-5.98v-14.03c0-2.54-0.37-4.31-1.11-5.3
			c-0.64-0.9-1.66-1.35-3.04-1.35c-1.74,0-2.93,0.64-3.57,1.93c-0.58,1.13-0.87,2.94-0.87,5.45v13.31H603.76z"/>
		<path class="st2" d="M631.92,323.98h-2.8v-4.77h2.8l0.34-9.65h5.64v9.65h4.92v4.77h-4.92v10.22c0,2.03,0.34,3.89,1.01,4.53
			c0.58,0.58,1.66,0.87,3.23,0.87h0.67v4.87h-0.87c-2.86,0-4.95-0.26-6.27-0.77c-1.41-0.55-2.4-1.52-2.94-2.92
			c-0.55-1.4-0.82-4.14-0.82-7.16V323.98z"/>
		<path class="st2" d="M653.28,333.05v0.72c0,4.02,1.77,6.03,5.3,6.03c1.22,0,2.22-0.2,2.99-0.6c0.77-0.4,1.48-1.07,2.12-2l4.44,2.6
			c-1.06,1.67-2.37,2.87-3.93,3.59c-1.56,0.72-3.64,1.09-6.24,1.09c-3.99,0-6.82-1.08-8.49-3.23c-1.48-1.9-2.22-4.77-2.22-8.63
			v-1.78c0-4.56,0.95-7.8,2.85-9.69c1.67-1.64,4.26-2.46,7.76-2.46c3.99,0,6.8,1.09,8.44,3.28c1.45,1.9,2.17,4.85,2.17,8.87v2.22
			H653.28z M653.23,328.9h9.55v-0.53c0-1.8-0.47-3.15-1.4-4.05c-0.8-0.77-1.93-1.16-3.38-1.16c-1.64,0-2.86,0.51-3.66,1.54
			c-0.74,0.9-1.11,2.12-1.11,3.66V328.9z"/>
		<path class="st2" d="M674.45,344.48v-25.27h4.58l0.72,1.78c0.77-0.84,1.54-1.43,2.31-1.78c0.77-0.35,1.7-0.53,2.8-0.53
			c1.7,0,3.47,0.51,5.3,1.54l-2.56,4.92c-1.19-0.87-2.3-1.3-3.33-1.3c-1.45,0-2.48,0.72-3.09,2.17c-0.52,1.29-0.77,3.28-0.77,5.98
			v12.49H674.45z"/>
	</g>
</g>
</svg>
