<?xml version="1.0" encoding="utf-8"?>
<!-- Generator: Adobe Illustrator 24.1.1, SVG Export Plug-In . SVG Version: 6.00 Build 0)  -->
<svg version="1.1" id="Layer_1" xmlns="http://www.w3.org/2000/svg" xmlns:xlink="http://www.w3.org/1999/xlink" x="0px" y="0px"
	 viewBox="0 0 415 286" style="enable-background:new 0 0 415 286;" xml:space="preserve">
<style type="text/css">
	.st0{fill:#A6A6A8;}
	.st1{fill:#273877;}
	.st2{fill:#AAAAAD;}
	.st3{fill:#CCD533;}
	.st4{fill:#71B645;}
	.st5{fill:#26B4BB;}
	.st6{fill:#59B25A;}
	.st7{fill:#2885C7;}
	.st8{fill:#1D3A6D;}
	.st9{fill:#70777F;}
</style>
<g>
	<g>
		<rect x="240.68" y="22.94" class="st0" width="4.19" height="4.18"/>
		<rect x="327.77" y="74.92" class="st0" width="4.19" height="4.18"/>
		<path class="st0" d="M378.68,70.43c1.03-0.49,1.86-1.19,2.49-2.12c0.63-0.92,1.07-2.04,1.33-3.34c0.26-1.31,0.39-2.78,0.39-4.41
			V31.3h-4.19v29.26c0,1.18-0.06,2.18-0.18,3c-0.12,0.82-0.33,1.48-0.63,1.99c-0.3,0.5-0.7,0.87-1.2,1.1
			c-0.51,0.23-1.16,0.34-1.96,0.34c-0.38,0-0.72-0.02-0.99-0.05c-0.28-0.03-0.66-0.12-1.15-0.26l-1.1,4.02
			c1.15,0.32,2.29,0.47,3.4,0.47C376.38,71.16,377.65,70.92,378.68,70.43z"/>
		<path class="st0" d="M364.28,23.9h-5.75v-0.97c0-0.53,0.11-0.94,0.34-1.23c0.19-0.24,0.64-0.36,1.29-0.36h2.88v-2.91h-2.95
			c-1.6,0-2.85,0.42-3.69,1.25c-0.85,0.83-1.28,2.19-1.28,4.02v3.41h9.17V23.9z"/>
		<rect x="319.39" y="74.92" class="st0" width="4.19" height="4.18"/>
		<rect x="249.06" y="22.94" class="st0" width="4.19" height="4.18"/>
		<path class="st0" d="M345.41,56.35c1.59,1.13,3.43,1.97,5.52,2.51c2.09,0.54,4.31,0.81,6.65,0.81h1.11l1.41-2.95v4.15
			c0,2.19-0.63,3.76-1.88,4.7c-1.26,0.94-3.02,1.41-5.29,1.41c-1.29,0-2.45-0.12-3.48-0.37c-1.03-0.24-2.21-0.66-3.53-1.25
			l-1.31,4.02c1.6,0.59,3.03,1.04,4.27,1.33c1.24,0.3,2.49,0.44,3.74,0.44c4.08,0,7.05-0.97,8.9-2.9c1.85-1.94,2.77-4.54,2.77-7.81
			V31.3h-6.7c-2.58,0-4.94,0.37-7.07,1.1c-2.13,0.73-3.95,1.73-5.47,3c-1.52,1.27-2.7,2.79-3.53,4.55
			c-0.84,1.76-1.26,3.67-1.26,5.72c0,2.47,0.46,4.59,1.39,6.35C342.56,53.78,343.82,55.22,345.41,56.35z M345.41,41.54
			c0.64-1.25,1.5-2.32,2.56-3.21c1.06-0.89,2.28-1.57,3.64-2.06c1.32-0.47,2.69-0.71,4.11-0.72v-0.01h6.77l-2.39,1.19v18.77h-4.24
			c-1.57,0-3.04-0.22-4.42-0.66c-1.38-0.43-2.59-1.07-3.64-1.91c-1.05-0.84-1.87-1.86-2.46-3.08c-0.6-1.22-0.89-2.61-0.89-4.18
			C344.44,44.17,344.76,42.8,345.41,41.54z"/>
		<path class="st0" d="M241.82,70.58h8.7v-3.13c0.08,0.15,0.17,0.3,0.26,0.43c0.63,0.92,1.46,1.63,2.49,2.12
			c1.03,0.49,2.29,0.73,3.79,0.73h76.35V31.3h-4.19v35.26h-4.35h-67.66c-0.8,0-1.46-0.11-1.96-0.34c-0.5-0.23-0.91-0.59-1.2-1.1
			c-0.29-0.51-0.5-1.17-0.63-1.99c-0.12-0.82-0.18-1.82-0.18-3V31.3h-11.32c-11.58,0-19.46,9.17-19.46,19.64v0.11
			C222.47,61.52,230.24,70.58,241.82,70.58z M226.93,50.83c0-8.63,6.2-15.57,14.89-15.57h9.8l-2.57,1.28v23.59
			c0,1.64,0.13,3.11,0.39,4.41c0.15,0.76,0.37,1.45,0.65,2.08l-8.17,0c-8.7,0-15-7.05-15-15.68V50.83z"/>
		<polygon class="st0" points="201.52,60.21 203.35,65.02 176.75,31.26 172.59,31.26 172.59,70.5 176.92,70.5 176.92,40.92 
			174.46,35.2 202.31,70.5 205.85,70.5 205.85,31.26 201.52,31.26 		"/>
		<path class="st0" d="M261.16,133.21l24.14-23.01V94.41h-64.52v17.97h33.08l12.27-7.88l-30.63,30.75l3.27,13.34h8.73
			c11.73,0,18.69,4.36,18.69,12.12v0.27c0,7.08-5.59,11.57-13.5,11.57c-9.68,0-16.5-4.08-23.05-11.44l-14.46,13.75
			c8.18,9.67,20.05,16.47,37.24,16.47c21.28,0,34.37-13.21,34.37-31.18v-0.27C286.81,142.19,274.12,135.39,261.16,133.21z"/>
		<path class="st0" d="M145.34,30.59c-11.96,0-20.11,9.47-20.11,20.3v0.11c0,10.82,8.03,20.18,20,20.18
			c11.96,0,20.11-9.47,20.11-20.29v-0.11C165.33,39.95,157.3,30.59,145.34,30.59z M160.73,50.99c0,8.91-6.4,16.09-15.39,16.09
			s-15.5-7.29-15.5-16.2v-0.11c0-8.91,6.41-16.09,15.39-16.09c8.99,0,15.5,7.29,15.5,16.2V50.99z"/>
		<path class="st0" d="M343.1,92.78c-29.46,0-50.88,22.19-50.88,49.28v0.27c0,27.09,21.14,49.01,50.6,49.01
			c29.46,0,50.88-22.19,50.88-49.28v-0.27C393.7,114.69,372.56,92.78,343.1,92.78z M371.75,142.33c0,16.34-11.73,29.68-28.65,29.68
			c-16.91,0-28.92-13.61-28.92-29.95v-0.27c0-16.34,11.73-29.68,28.64-29.68s28.92,13.61,28.92,29.95V142.33z"/>
		<rect x="113.13" y="31.26" class="st0" width="4.44" height="39.24"/>
		<path class="st0" d="M41.85,178.82l4.05-3.12l20.87-16.08c16.91-13.07,25.1-20.96,25.1-36.89v-0.27
			c0-17.84-13.09-29.41-32.87-29.41c-17.05,0-26.19,6.94-35.6,19.74l14.73,11.84c7.09-8.71,12.14-12.79,19.51-12.79
			c7.5,0,12.82,4.36,12.82,12.39c0,7.89-4.64,13.07-16.5,22.87l-31.78,26v16.61h70.66V171.6H56.41L41.85,178.82z"/>
		<polygon class="st0" points="42.14,70.78 59.04,31.26 54.27,31.26 40.91,63.43 41.33,67.74 40.23,65.06 28.66,37.1 26.24,31.26 
			21.3,31.26 38.2,70.78 		"/>
		<rect x="65.07" y="31.26" class="st0" width="4.44" height="39.24"/>
		<path class="st0" d="M93.01,48.75c-8.65-1.85-10.67-3.92-10.67-7.62v-0.11c0-3.53,3.26-6.33,8.37-6.33
			c4.04,0,7.69,1.29,11.35,4.26l2.58-3.42c-3.99-3.2-8.09-4.82-13.82-4.82c-7.47,0-12.92,4.54-12.92,10.71v0.11
			c0,6.45,4.16,9.36,13.2,11.33c8.26,1.74,10.22,3.81,10.22,7.46v0.11c0,3.87-3.48,6.67-8.76,6.67c-5.45,0-9.38-1.85-13.48-5.55
			l-2.75,3.25c4.72,4.21,9.83,6.28,16.06,6.28c7.81,0,13.42-4.37,13.42-11.1v-0.11C105.81,53.85,101.77,50.66,93.01,48.75z"/>
	</g>
	<polygon class="st1" points="149.89,86.51 154.73,91.14 150.09,95.96 145.25,91.33 	"/>
	<polygon class="st2" points="160.96,91.33 165.79,95.96 170.43,91.14 165.6,86.51 	"/>
	<polygon class="st3" points="154.15,97.42 157.92,101.02 161.53,97.26 157.76,93.66 	"/>
	<polygon class="st4" points="167.95,99.48 171.72,103.09 175.33,99.33 171.57,95.72 	"/>
	<polygon class="st3" points="147.99,103.16 151.76,106.77 155.37,103.01 151.61,99.4 	"/>
	<polygon class="st5" points="160.63,103.6 164.39,107.2 168,103.45 164.24,99.84 	"/>
	<polygon class="st4" points="155.69,107.92 158.33,110.46 160.88,107.81 158.23,105.28 	"/>
	<polygon class="st6" points="165.68,109.91 168.32,112.45 170.87,109.81 168.22,107.27 	"/>
	
		<rect x="188.18" y="88.99" transform="matrix(0.9836 -0.1803 0.1803 0.9836 -13.6436 36.2082)" class="st7" width="8.35" height="8.34"/>
	
		<rect x="177.32" y="92.58" transform="matrix(0.9836 -0.1801 0.1801 0.9836 -14.3228 34.1109)" class="st8" width="6.7" height="6.69"/>
	
		<rect x="190.06" y="101.75" transform="matrix(0.9836 -0.1804 0.1804 0.9836 -15.7858 36.6133)" class="st5" width="6.7" height="6.69"/>
	
		<rect x="180.85" y="102.86" transform="matrix(0.9836 -0.1802 0.1802 0.9836 -16.0018 34.789)" class="st3" width="5.22" height="5.21"/>
	
		<rect x="190.84" y="112.59" transform="matrix(0.9836 -0.1802 0.1802 0.9836 -17.5925 36.7481)" class="st2" width="5.22" height="5.21"/>
	
		<rect x="173.16" y="104.94" transform="matrix(0.9836 -0.1802 0.1802 0.9836 -16.5036 33.4376)" class="st5" width="5.22" height="5.21"/>
	
		<rect x="182.48" y="111.65" transform="matrix(0.9836 -0.1802 0.1802 0.9836 -17.5599 35.2258)" class="st4" width="5.22" height="5.21"/>
	
		<rect x="175.81" y="112.42" transform="matrix(0.9836 -0.1803 0.1803 0.9836 -17.6901 33.9055)" class="st2" width="3.67" height="3.66"/>
	
		<rect x="182.75" y="119.87" transform="matrix(0.9837 -0.1798 0.1798 0.9837 -18.8757 35.1741)" class="st6" width="3.67" height="3.66"/>
	<polygon class="st1" points="211.93,116.67 208.34,124.2 215.88,127.78 219.47,120.25 	"/>
	<polygon class="st5" points="201.22,113.19 198.34,119.23 204.39,122.1 207.27,116.06 	"/>
	<polygon class="st4" points="206.17,128.07 203.29,134.11 209.35,136.98 212.22,130.94 	"/>
	<polygon class="st3" points="198.24,123.54 196,128.24 200.71,130.48 202.96,125.77 	"/>
	<polygon class="st3" points="200.63,137.26 198.39,141.96 203.1,144.2 205.35,139.5 	"/>
	<polygon class="st7" points="190.78,120.74 188.54,125.44 193.25,127.68 195.5,122.97 	"/>
	<polygon class="st2" points="194.41,131.62 192.16,136.32 196.88,138.56 199.12,133.86 	"/>
	<polygon class="st4" points="188.74,128.3 187.16,131.61 190.48,133.18 192.05,129.88 	"/>
	
		<rect x="189.03" y="139" transform="matrix(0.4297 -0.903 0.903 0.4297 -18.3215 252.6612)" class="st5" width="3.66" height="3.67"/>
	<polygon class="st7" points="215.99,152.72 208.67,156.73 212.69,164.04 220.01,160.03 	"/>
	<polygon class="st5" points="209.35,143.65 203.47,146.86 206.7,152.73 212.57,149.51 	"/>
	<polygon class="st5" points="204.64,158.6 198.77,161.82 201.99,167.69 207.87,164.47 	"/>
	<polygon class="st1" points="200.87,150.3 196.29,152.81 198.8,157.37 203.38,154.87 	"/>
	<polygon class="st6" points="194.76,162.83 190.19,165.33 192.7,169.9 197.27,167.39 	"/>
	<polygon class="st8" points="196.46,143.67 191.88,146.18 194.39,150.74 198.97,148.24 	"/>
	<polygon class="st3" points="193.02,154.61 188.44,157.12 190.95,161.68 195.53,159.18 	"/>
	<polygon class="st2" points="190.37,148.61 187.15,150.38 188.91,153.59 192.13,151.83 	"/>
	<polygon class="st5" points="185.47,157.53 182.25,159.29 184.02,162.5 187.23,160.74 	"/>
	
		<rect x="189.33" y="183.78" transform="matrix(0.1226 -0.9925 0.9925 0.1226 -16.7729 356.9383)" class="st4" width="8.34" height="8.35"/>
	
		<rect x="191" y="172.65" transform="matrix(0.123 -0.9924 0.9924 0.123 -4.2151 347.2294)" class="st8" width="6.69" height="6.7"/>
	
		<rect x="178.42" y="182.03" transform="matrix(0.123 -0.9924 0.9924 0.123 -24.5607 342.973)" class="st5" width="6.69" height="6.7"/>
	
		<rect x="181.79" y="173.19" transform="matrix(0.1226 -0.9925 0.9925 0.1226 -12.6903 337.2448)" class="st4" width="5.21" height="5.22"/>
	
		<rect x="169.5" y="179.78" transform="matrix(0.1227 -0.9924 0.9924 0.1227 -30.0224 330.8231)" class="st2" width="5.21" height="5.22"/>
	
		<rect x="182.1" y="165.24" transform="matrix(0.123 -0.9924 0.9924 0.123 -4.5822 330.5199)" class="st2" width="5.21" height="5.22"/>
	
		<rect x="172.9" y="172.1" transform="matrix(0.123 -0.9924 0.9924 0.123 -19.4632 327.4042)" class="st4" width="5.21" height="5.22"/>
	
		<rect x="175.9" y="165.8" transform="matrix(0.1228 -0.9924 0.9924 0.1228 -10.4469 323.4403)" class="st2" width="3.66" height="3.67"/>
	
		<rect x="166.7" y="170.16" transform="matrix(0.1227 -0.9924 0.9924 0.1227 -22.8494 318.1514)" class="st2" width="3.66" height="3.67"/>
	<polygon class="st3" points="165.16,199.55 159.04,193.88 153.35,199.99 159.47,205.66 	"/>
	<polygon class="st4" points="164.03,82.77 157.91,77.09 152.22,83.2 158.35,88.88 	"/>
	<polygon class="st5" points="171.69,190.4 166.78,185.84 162.22,190.75 167.13,195.3 	"/>
	<polygon class="st4" points="155.99,190.66 151.07,186.1 146.51,191.01 151.42,195.56 	"/>
	<polygon class="st7" points="162.69,184.46 158.86,180.92 155.32,184.73 159.14,188.28 	"/>
	<polygon class="st3" points="148.85,182.63 145.03,179.08 141.48,182.9 145.31,186.44 	"/>
	<polygon class="st3" points="167.6,178.2 163.78,174.65 160.23,178.47 164.05,182.01 	"/>
	<polygon class="st2" points="156.11,178.39 152.29,174.84 148.74,178.66 152.56,182.2 	"/>
	<polygon class="st8" points="160.98,173.98 158.29,171.49 155.79,174.18 158.48,176.67 	"/>
	<polygon class="st2" points="150.96,172.16 148.27,169.66 145.77,172.35 148.46,174.84 	"/>
	
		<rect x="120.39" y="185.18" transform="matrix(0.9805 -0.1965 0.1965 0.9805 -34.7808 28.1697)" class="st7" width="8.35" height="8.34"/>
	
		<rect x="132.85" y="183.05" transform="matrix(0.9805 -0.1964 0.1964 0.9805 -33.9526 30.3775)" class="st5" width="6.7" height="6.69"/>
	
		<rect x="119.96" y="174.08" transform="matrix(0.9805 -0.1967 0.1967 0.9805 -32.4854 27.715)" class="st4" width="6.7" height="6.69"/>
	
		<rect x="130.64" y="174.3" transform="matrix(0.9805 -0.1964 0.1964 0.9805 -32.1483 29.6159)" class="st3" width="5.22" height="5.21"/>
	
		<rect x="138.3" y="172.09" transform="matrix(0.9805 -0.1964 0.1964 0.9805 -31.5649 31.0761)" class="st1" width="5.22" height="5.21"/>
	
		<rect x="128.87" y="165.53" transform="matrix(0.9805 -0.1964 0.1964 0.9805 -30.4612 29.097)" class="st7" width="5.22" height="5.21"/>
	
		<rect x="137.08" y="166.18" transform="matrix(0.9806 -0.1962 0.1962 0.9806 -30.2656 30.5228)" class="st4" width="3.67" height="3.66"/>
	
		<rect x="130.03" y="158.85" transform="matrix(0.9805 -0.1967 0.1967 0.9805 -29.0314 29.0785)" class="st2" width="3.67" height="3.66"/>
	<polygon class="st5" points="104.6,166.17 108.07,158.58 100.46,155.12 97,162.71 	"/>
	<polygon class="st3" points="115.37,169.47 118.14,163.38 112.05,160.61 109.27,166.7 	"/>
	<polygon class="st7" points="110.17,154.67 112.94,148.59 106.85,145.81 104.07,151.9 	"/>
	
		<rect x="114.27" y="153.01" transform="matrix(0.4149 -0.9098 0.9098 0.4149 -73.2121 197.388)" class="st5" width="5.21" height="5.22"/>
	<polygon class="st2" points="124.52,170.92 126.69,166.18 121.94,164.02 119.78,168.76 	"/>
	
		<rect x="111.65" y="139.33" transform="matrix(0.4151 -0.9098 0.9098 0.4151 -62.302 186.9743)" class="st1" width="5.21" height="5.22"/>
	
		<rect x="121.78" y="155.69" transform="matrix(0.4151 -0.9098 0.9098 0.4151 -71.264 205.7542)" class="st6" width="5.21" height="5.22"/>
	
		<rect x="117.97" y="144.87" transform="matrix(0.4154 -0.9096 0.9096 0.4154 -63.6604 195.902)" class="st3" width="5.21" height="5.22"/>
	<polygon class="st8" points="127.59,154.15 129.12,150.82 125.77,149.3 124.25,152.63 	"/>
	<polygon class="st4" points="126.17,144.08 127.69,140.75 124.35,139.23 122.83,142.56 	"/>
	<polygon class="st5" points="99.94,130.19 107.2,126.06 103.06,118.81 95.8,122.94 	"/>
	<polygon class="st4" points="106.73,139.15 112.55,135.84 109.23,130.03 103.41,133.34 	"/>
	<polygon class="st8" points="111.19,124.12 117.01,120.8 113.69,114.99 107.87,118.3 	"/>
	<polygon class="st7" points="115.1,132.36 119.63,129.78 117.05,125.25 112.52,127.83 	"/>
	<polygon class="st4" points="121,119.73 125.53,117.15 122.95,112.63 118.41,115.21 	"/>
	<polygon class="st5" points="119.62,138.91 124.15,136.33 121.57,131.81 117.03,134.39 	"/>
	<polygon class="st3" points="122.88,127.91 127.41,125.33 124.83,120.81 120.29,123.39 	"/>
	<polygon class="st2" points="125.63,133.87 128.82,132.05 127,128.87 123.81,130.68 	"/>
	<polygon class="st4" points="130.38,124.87 133.57,123.06 131.75,119.88 128.56,121.69 	"/>
	
		<rect x="117.68" y="90.41" transform="matrix(0.1063 -0.9943 0.9943 0.1063 14.8477 205.6878)" class="st4" width="8.34" height="8.35"/>
	
		<rect x="117.85" y="103.2" transform="matrix(0.1064 -0.9943 0.9943 0.1064 2.3507 215.7179)" class="st2" width="6.69" height="6.7"/>
	
		<rect x="130.28" y="93.61" transform="matrix(0.1064 -0.9943 0.9943 0.1064 22.9885 219.5046)" class="st5" width="6.69" height="6.7"/>
	
		<rect x="128.54" y="103.98" transform="matrix(0.1064 -0.9943 0.9943 0.1064 11.2051 225.6438)" class="st3" width="5.21" height="5.22"/>
	
		<rect x="140.73" y="97.18" transform="matrix(0.1061 -0.9944 0.9944 0.1061 28.8881 231.7214)" class="st7" width="5.21" height="5.22"/>
	
		<rect x="128.36" y="111.93" transform="matrix(0.1065 -0.9943 0.9943 0.1065 3.133 232.5648)" class="st5" width="5.21" height="5.22"/>
	
		<rect x="137.45" y="104.92" transform="matrix(0.1065 -0.9943 0.9943 0.1065 18.2266 235.3337)" class="st4" width="5.21" height="5.22"/>
	
		<rect x="136.11" y="112.81" transform="matrix(0.1064 -0.9943 0.9943 0.1064 9.2726 239.61)" class="st8" width="3.66" height="3.67"/>
	
		<rect x="145.24" y="108.29" transform="matrix(0.1058 -0.9944 0.9944 0.1058 22.0082 244.7206)" class="st2" width="3.66" height="3.67"/>
	<path class="st9" d="M184.47,146.5c-0.62-0.35-1.75-0.94-3.31-1.43c-2.25-0.72-5.39-1.26-9.11-0.67c-1.25,0.2-2.57,0.53-3.94,1.02
		c-0.13,0.05-0.26,0.09-0.39,0.14c-0.7,0.26-1.39,0.58-2.09,0.93c-0.59,0.3-1.19,0.63-1.78,0.99c-1.35,0.81-2.68,1.73-3.97,2.73
		c-1.47-8.89-0.75-17.14-0.41-21.19c0-0.02,0.03-0.03,0.05-0.02c3.15,1.98,2.27,7.51,1.6,9.1c-0.01,0.03,0.03,0.05,0.06,0.03
		c3.92-4.63,2.01-9.75,1.2-11.04c-0.02-0.03,0.02-0.06,0.05-0.04c0.57,0.46,1.03,0.95,1.42,1.45c1.21,1.55,1.66,3.22,1.78,4.7
		c0.06,0.78,0.04,1.5,0,2.12c-0.01,0.17-0.02,0.32-0.04,0.47c0,0.02,0.02,0.03,0.04,0.02c0.01,0,0.02,0,0.02-0.01
		c1.06-2.08,1.57-5.22-0.02-8.27c-0.43-0.83-1.01-1.65-1.78-2.44c-0.22-0.23-0.46-0.45-0.71-0.68c-0.02-0.02,0-0.06,0.03-0.05
		c0.24,0.06,0.46,0.13,0.68,0.2c0.67,0.23,1.26,0.55,1.78,0.94c1.19,0.88,2,2.08,2.48,3.34c0.4,1.04,0.58,2.11,0.58,3.06
		c0,0.04,0.05,0.04,0.06,0.01c0.74-2.71,0.29-4.76-0.64-6.25c-0.66-1.07-1.57-1.85-2.48-2.4c-0.62-0.37-1.24-0.63-1.78-0.79
		c-0.32-0.1-0.6-0.16-0.85-0.19c-0.04,0-0.03-0.06,0.01-0.06c0.29-0.03,0.57-0.04,0.84-0.04c0.66-0.01,1.25,0.04,1.78,0.14
		c1.05,0.2,1.87,0.56,2.48,0.98c1,0.67,1.5,1.46,1.67,1.78c0.01,0.03,0.06,0.01,0.06-0.02c-0.14-1.43-0.8-2.55-1.72-3.35
		c-0.71-0.62-1.58-1.05-2.48-1.31c-0.59-0.16-1.19-0.25-1.78-0.26c-0.8-0.01-1.57,0.12-2.22,0.4c-0.03,0.01-0.05-0.02-0.04-0.05
		c0.58-0.83,1.4-1.33,2.26-1.6c0.6-0.18,1.21-0.25,1.78-0.21c0.55,0.03,1.05,0.15,1.46,0.34c0.03,0.01,0.05-0.02,0.03-0.05
		c-0.45-0.51-0.96-0.91-1.49-1.21c-0.57-0.32-1.17-0.51-1.78-0.58c-1.59-0.18-3.21,0.5-4.29,2.13c-0.01,0.02-0.04,0.02-0.05,0
		c-0.21-0.37-0.41-0.78-0.59-1.21c-0.43-1-0.78-2.12-0.97-3.24c-0.01-0.04-0.05-0.04-0.05,0c-0.19,1.12-0.55,2.25-0.98,3.25
		c-0.19,0.43-0.38,0.83-0.59,1.19c-0.01,0.02-0.04,0.02-0.05,0c-1.88-2.85-5.41-2.79-7.56-0.33c-0.02,0.02,0,0.06,0.03,0.05
		c1.43-0.68,4.14-0.48,5.5,1.47c0.02,0.03-0.01,0.06-0.04,0.05c-2.09-0.88-5.33-0.31-7.06,1.75c-0.62,0.73-1.04,1.66-1.15,2.77
		c0,0.03,0.04,0.05,0.06,0.02c0.13-0.25,0.47-0.79,1.09-1.34c1.01-0.89,2.77-1.79,5.68-1.52c0.04,0.01,0.04,0.06,0.01,0.06
		c-1.49,0.18-4.56,1.51-5.69,4.55c-0.5,1.34-0.63,3.02-0.07,5.08c0.01,0.03,0.06,0.03,0.06-0.01c0-0.04,0-0.09,0.01-0.14
		c0.03-2.76,1.61-6.46,5.52-7.4c0.03-0.01,0.05,0.03,0.03,0.05c-4.37,3.84-3.94,8.58-2.51,11.38c0.01,0.03,0.06,0.02,0.06-0.01
		c-0.19-2.12-0.34-5.89,3.16-8.74c0.03-0.02,0.07,0.01,0.05,0.04c-0.81,1.29-2.72,6.41,1.2,11.04c0.02,0.03,0.07,0.01,0.06-0.03
		c-0.66-1.58-1.54-7.12,1.6-9.1c0.02-0.01,0.05,0,0.05,0.02c0.34,4.05,1.06,12.3-0.41,21.19c-2.53-1.94-5.2-3.64-7.84-4.64
		c-0.33-0.12-0.65-0.23-0.96-0.34c-2.73-0.9-5.23-1.15-7.41-1.05c-3.5,0.15-6.18,1.2-7.65,1.93c-0.3,0.15-0.55,0.29-0.74,0.4
		c-0.08,0.05-0.02,0.16,0.06,0.13c0.23-0.07,0.45-0.14,0.68-0.2c2.69-0.76,5.24-0.96,7.65-0.75c2.63,0.23,5.1,0.95,7.41,1.99
		c3.24,1.46,6.17,3.54,8.82,5.74c-3.74,3.26-6.9,6.43-8.82,7.54c-0.1,0.05-0.19,0.11-0.28,0.16c-0.46-0.63-1.26-0.99-2.13-0.8
		c-0.76,0.17-1.38,0.78-1.55,1.53c-0.15,0.67,0.02,1.4,0.4,1.78c1.02,1.02,2.2,1.09,3.56,0.52c2.59-1.09,5.81-4.51,9.76-8.13
		c0.33-0.3,0.66-0.61,1-0.91c0.34,0.3,0.67,0.6,1,0.9c1.79,1.64,3.43,3.24,4.93,4.6c0.62,0.56,1.21,1.08,1.78,1.54
		c0.88,0.72,1.71,1.31,2.48,1.72c1.51,0.8,2.82,0.9,3.94-0.09c0.06-0.05,0.12-0.1,0.18-0.16c0.26-0.26,0.56-1.11,0.4-1.78
		c-0.09-0.39-0.3-0.74-0.59-1.01c-0.26-0.25-0.6-0.44-0.96-0.52c-0.87-0.19-1.67,0.17-2.13,0.8c-0.26-0.13-0.54-0.31-0.85-0.52
		c-0.71-0.49-1.54-1.18-2.48-2c-0.56-0.49-1.15-1.03-1.78-1.6c-1.22-1.11-2.56-2.33-3.98-3.58c1.26-1.05,2.59-2.07,3.98-3.01
		c0.58-0.39,1.17-0.77,1.78-1.13c0.81-0.48,1.63-0.92,2.48-1.33c1.27-0.61,2.58-1.12,3.94-1.51c2.82-0.81,5.85-1.08,9.11-0.56
		c1.06,0.17,2.14,0.42,3.25,0.76C184.49,146.66,184.55,146.54,184.47,146.5"/>
	<g>
		<rect x="40.69" y="237.31" class="st0" width="2.46" height="2.46"/>
		<path class="st0" d="M206.32,234.47v-16.24h-2.4v13.84h-9.05v-13.84h-2.4v13.84h-9.53v-13.84h-3.77c-1.5,0-2.86,0.2-4.08,0.61
			c-1.22,0.41-2.26,0.98-3.12,1.7c-0.86,0.73-1.52,1.59-1.99,2.59c-0.47,1-0.7,2.07-0.7,3.23c0,1.42,0.27,2.63,0.81,3.65
			c0.54,1.02,1.26,1.85,2.16,2.51c0.9,0.66,1.95,1.15,3.15,1.46c1.2,0.32,2.46,0.48,3.78,0.48H206.32z M175.65,231.69
			c-0.79-0.26-1.48-0.63-2.07-1.12c-0.59-0.49-1.05-1.09-1.39-1.79c-0.34-0.71-0.51-1.51-0.51-2.41c0-0.86,0.19-1.64,0.56-2.35
			c0.37-0.71,0.86-1.31,1.47-1.82c0.61-0.51,1.3-0.9,2.08-1.17c0.78-0.27,1.58-0.4,2.4-0.4h2.37v11.45h-2.37
			C177.29,232.08,176.44,231.95,175.65,231.69z"/>
		<rect x="155.05" y="213.01" class="st0" width="2.4" height="21.46"/>
		<rect x="180.47" y="213.01" class="st0" width="2.46" height="2.46"/>
		<rect x="203.89" y="237.28" class="st0" width="2.46" height="2.46"/>
		<rect x="44.89" y="237.31" class="st0" width="2.46" height="2.46"/>
		<path class="st0" d="M145.67,232.08h-3.92c-1.4,0-2.5-0.2-3.3-0.6c-0.8-0.4-1.43-1-1.89-1.79c0.14-0.62,0.21-1.37,0.21-2.24v-7.72
			h-2.4v8.1c0,1.38-0.37,2.48-1.11,3.31c-0.74,0.83-1.86,1.24-3.36,1.24c-0.7,0-1.34-0.11-1.92-0.33c-0.58-0.22-1.08-0.52-1.5-0.9
			c-0.42-0.38-0.75-0.82-0.99-1.33c-0.24-0.51-0.37-1.05-0.39-1.63v-8.46h-2.4v8.28c0,0.74-0.11,1.36-0.33,1.87
			c-0.22,0.51-0.52,0.93-0.9,1.26c-0.38,0.33-0.81,0.57-1.29,0.72c-0.48,0.15-0.99,0.22-1.53,0.22h-4.64v-12.35h-2.4v12.35H99.05
			l4.19-10.02c-0.64-0.56-1.32-1.08-2.04-1.57c-0.72-0.49-1.46-0.92-2.22-1.29c-0.76-0.37-1.53-0.66-2.31-0.87
			c-0.78-0.21-1.55-0.31-2.31-0.31c-0.78,0-1.56,0.11-2.34,0.31c-0.78,0.21-1.55,0.49-2.32,0.85c-0.77,0.36-1.51,0.79-2.22,1.29
			c-0.71,0.5-1.37,1.02-1.99,1.58l4.22,10.02h-8.3v-13.84H77.6c-1.48,0-2.83,0.21-4.05,0.63c-1.22,0.42-2.26,0.99-3.13,1.72
			c-0.87,0.73-1.54,1.6-2.02,2.6c-0.48,1.01-0.72,2.1-0.72,3.28c0,1.42,0.26,2.63,0.79,3.63c0.53,1.01,1.25,1.84,2.16,2.48
			c0.91,0.65,1.96,1.13,3.16,1.43c1.2,0.31,2.47,0.46,3.81,0.46h1.44v0.69c0,1.26-0.36,2.15-1.08,2.69
			c-0.72,0.54-1.73,0.81-3.03,0.81c-0.74,0-1.4-0.07-1.99-0.21c-0.59-0.14-1.26-0.38-2.02-0.72l-0.75,2.3
			c0.92,0.34,1.73,0.59,2.44,0.76c0.71,0.17,1.42,0.26,2.14,0.26c2.34,0,4.03-0.55,5.09-1.66c1.06-1.11,1.59-2.6,1.59-4.47v-0.45
			h37.24c1.16,0,2.19-0.25,3.1-0.75c0.91-0.5,1.64-1.17,2.2-2c0.58,0.96,1.37,1.71,2.37,2.24c1,0.54,2.19,0.81,3.57,0.81
			c1.44,0,2.66-0.25,3.67-0.75c1.01-0.5,1.78-1.26,2.32-2.3c0.2,0.34,0.44,0.67,0.73,1c0.29,0.33,0.66,0.62,1.12,0.88
			c0.46,0.26,1.02,0.47,1.66,0.63c0.49,0.12,1.08,0.18,1.72,0.21v0.03h6.92v-21.46h-2.4V232.08z M79.03,232.08h-2.43
			c-0.9,0-1.74-0.12-2.53-0.37c-0.79-0.25-1.48-0.61-2.08-1.09c-0.6-0.48-1.07-1.07-1.41-1.76c-0.34-0.7-0.51-1.5-0.51-2.39
			c0-0.86,0.18-1.64,0.55-2.36c0.37-0.72,0.86-1.33,1.47-1.84c0.61-0.51,1.3-0.9,2.08-1.18c0.78-0.28,1.59-0.42,2.43-0.42h2.43
			V232.08z M92.25,232.08l-3.74-9.18c0.92-0.78,1.86-1.35,2.83-1.7c0.97-0.36,1.98-0.54,3.04-0.54c1.08,0,2.15,0.21,3.21,0.64
			c1.06,0.43,1.96,0.96,2.7,1.6l-3.74,9.18H92.25z"/>
		<rect x="32.49" y="213.01" class="st0" width="2.46" height="2.46"/>
		<rect x="274.92" y="213.01" class="st0" width="2.46" height="2.46"/>
		<rect x="253.69" y="213.01" class="st0" width="2.4" height="21.46"/>
		<rect x="176.28" y="213.01" class="st0" width="2.46" height="2.46"/>
		<path class="st0" d="M63.87,225.05c0-0.94-0.12-1.82-0.38-2.63c-0.25-0.82-0.63-1.51-1.15-2.09c-0.64-0.7-1.35-1.22-2.14-1.57
			c-0.79-0.35-1.75-0.52-2.89-0.52h-1.77v2.39h2.1c0.58,0,1.13,0.13,1.65,0.37c0.52,0.25,0.95,0.57,1.29,0.97
			c0.34,0.42,0.57,0.88,0.7,1.38c0.13,0.5,0.2,1.1,0.2,1.79v6.94H50.24v2.39h13.63V225.05z"/>
		<rect x="380.49" y="213.01" class="st0" width="2.4" height="21.46"/>
		<rect x="279.11" y="213.01" class="st0" width="2.46" height="2.46"/>
		<path class="st0" d="M373.51,213.01h-2.4v19.07h-8.24c0.5-1.1,0.75-2.27,0.75-3.53c0-1.24-0.23-2.39-0.67-3.45
			c-0.45-1.07-1.06-1.99-1.84-2.76c-0.78-0.78-1.7-1.39-2.77-1.84c-1.07-0.45-2.22-0.67-3.46-0.67c-1.2,0-2.32,0.23-3.36,0.69
			c-1.04,0.46-1.94,1.08-2.71,1.87c-0.77,0.79-1.37,1.71-1.81,2.77c-0.44,1.06-0.66,2.19-0.66,3.41c0,0.64,0.07,1.25,0.2,1.84
			c0.13,0.59,0.3,1.15,0.52,1.69h-7.43c0.5-1.1,0.75-2.27,0.75-3.53c0-1.24-0.23-2.39-0.67-3.45c-0.45-1.07-1.06-1.99-1.84-2.76
			c-0.78-0.78-1.7-1.39-2.77-1.84c-1.07-0.45-2.22-0.67-3.46-0.67c-1.2,0-2.31,0.23-3.35,0.69c-1.04,0.46-1.94,1.08-2.71,1.87
			c-0.77,0.79-1.37,1.71-1.81,2.77c-0.44,1.06-0.66,2.19-0.66,3.41c0,0.64,0.07,1.25,0.2,1.84c0.13,0.59,0.3,1.15,0.52,1.69h-7.61
			v-19.07h-2.4v19.07h-7.64v-3.66c0-0.92-0.12-1.79-0.36-2.62c-0.24-0.83-0.62-1.53-1.14-2.11c-0.62-0.7-1.32-1.22-2.1-1.56
			c-0.78-0.34-1.77-0.51-2.97-0.51h-10.61l4.51-8.62h-2.61l-4.6,8.59c0.08,0.52,0.2,0.97,0.38,1.35c0.17,0.38,0.4,0.74,0.7,1.08
			h12.22c0.76,0,1.41,0.11,1.96,0.35c0.55,0.23,0.99,0.54,1.33,0.94c0.34,0.4,0.57,0.86,0.69,1.38c0.12,0.52,0.18,1.1,0.18,1.73
			v3.66h-22.17v-13.84h-3.78c-1.5,0-2.86,0.2-4.07,0.61c-1.22,0.41-2.26,0.98-3.12,1.7c-0.86,0.73-1.52,1.59-1.99,2.59
			c-0.47,1-0.7,2.07-0.7,3.23c0,1.42,0.27,2.63,0.81,3.65c0.54,1.02,1.26,1.85,2.16,2.51c0.9,0.66,1.95,1.15,3.15,1.46
			c1.2,0.32,2.46,0.48,3.77,0.48h47.55c0.78,0.84,1.7,1.5,2.77,1.99c1.07,0.49,2.23,0.73,3.49,0.73c1.28,0,2.47-0.24,3.58-0.72
			c1.11-0.48,2.06-1.15,2.86-2h10.55c0.78,0.84,1.7,1.5,2.77,1.99c1.07,0.49,2.23,0.73,3.49,0.73c1.28,0,2.47-0.24,3.58-0.72
			c1.11-0.48,2.06-1.15,2.86-2h12.19V213.01z M279.19,232.08h-2.37c-0.9,0-1.74-0.13-2.53-0.39c-0.79-0.26-1.48-0.63-2.07-1.12
			s-1.05-1.09-1.39-1.79c-0.34-0.71-0.51-1.51-0.51-2.41c0-0.86,0.18-1.64,0.55-2.35c0.37-0.71,0.86-1.31,1.47-1.82
			c0.61-0.51,1.3-0.9,2.08-1.17c0.78-0.27,1.58-0.4,2.4-0.4h2.37V232.08z M337.48,231.02c-0.33,0.77-0.78,1.43-1.35,1.99
			c-0.57,0.56-1.24,0.99-2.01,1.3c-0.77,0.31-1.6,0.46-2.5,0.46c-0.88,0-1.69-0.17-2.44-0.49c-0.75-0.33-1.4-0.78-1.95-1.35
			c-0.55-0.57-0.98-1.23-1.29-1.99c-0.31-0.76-0.46-1.57-0.46-2.42c0-0.86,0.16-1.67,0.46-2.44c0.31-0.77,0.74-1.43,1.28-2
			c0.54-0.57,1.18-1.02,1.93-1.36c0.75-0.34,1.57-0.51,2.47-0.51c0.92,0,1.76,0.16,2.53,0.48c0.77,0.32,1.44,0.76,2.01,1.32
			c0.57,0.56,1.01,1.22,1.33,1.99c0.32,0.77,0.48,1.61,0.48,2.53C337.98,229.41,337.81,230.25,337.48,231.02z M360.73,231.02
			c-0.33,0.77-0.78,1.43-1.35,1.99c-0.57,0.56-1.24,0.99-2.01,1.3c-0.77,0.31-1.6,0.46-2.5,0.46c-0.88,0-1.69-0.17-2.44-0.49
			c-0.75-0.33-1.4-0.78-1.95-1.35c-0.55-0.57-0.98-1.23-1.29-1.99c-0.31-0.76-0.47-1.57-0.47-2.42c0-0.86,0.16-1.67,0.47-2.44
			c0.31-0.77,0.73-1.43,1.27-2c0.54-0.57,1.18-1.02,1.93-1.36c0.75-0.34,1.57-0.51,2.47-0.51c0.92,0,1.76,0.16,2.53,0.48
			c0.77,0.32,1.44,0.76,2.01,1.32c0.57,0.56,1.01,1.22,1.33,1.99c0.32,0.77,0.48,1.61,0.48,2.53
			C361.23,229.41,361.06,230.25,360.73,231.02z"/>
		<path class="st0" d="M27.41,233.99c1.2,0.32,2.46,0.48,3.77,0.48h15.7v-16.24h-2.4v13.84h-9.53v-13.84h-3.78
			c-1.5,0-2.85,0.2-4.07,0.61c-1.22,0.41-2.26,0.98-3.12,1.7c-0.86,0.73-1.52,1.59-1.99,2.59c-0.47,1-0.7,2.07-0.7,3.23
			c0,1.42,0.27,2.63,0.81,3.65c0.54,1.02,1.26,1.85,2.16,2.51C25.16,233.18,26.21,233.67,27.41,233.99z M23.69,226.36
			c0-0.86,0.19-1.64,0.56-2.35c0.37-0.71,0.86-1.31,1.47-1.82c0.61-0.51,1.3-0.9,2.08-1.17c0.78-0.27,1.58-0.4,2.4-0.4h2.37v11.45
			H30.2c-0.9,0-1.74-0.13-2.53-0.39c-0.79-0.26-1.48-0.63-2.07-1.12c-0.59-0.49-1.05-1.09-1.39-1.79
			C23.86,228.06,23.69,227.26,23.69,226.36z"/>
		<rect x="195.12" y="237.31" class="st0" width="2.46" height="2.46"/>
		<rect x="190.93" y="237.31" class="st0" width="2.46" height="2.46"/>
		<path class="st0" d="M215.65,237.51c0.15-0.75,0.23-1.59,0.23-2.53v-0.51h30.83v-21.46h-2.4v19.07h-10.19l4.19-10.02
			c-0.64-0.56-1.32-1.08-2.04-1.57c-0.72-0.49-1.46-0.92-2.22-1.29c-0.76-0.37-1.53-0.66-2.31-0.87c-0.78-0.21-1.55-0.31-2.31-0.31
			c-0.78,0-1.56,0.11-2.34,0.31c-0.78,0.21-1.55,0.49-2.32,0.85c-0.77,0.36-1.51,0.79-2.22,1.29c-0.71,0.5-1.37,1.02-1.99,1.58
			l4.22,10.02h-8.93v-13.84h-2.4v16.74c0,0.68-0.03,1.25-0.1,1.72c-0.07,0.47-0.19,0.85-0.36,1.14c-0.17,0.29-0.4,0.5-0.69,0.63
			c-0.29,0.13-0.66,0.2-1.12,0.2c-0.22,0-0.41-0.01-0.57-0.03c-0.16-0.02-0.38-0.07-0.66-0.15l-0.63,2.3
			c0.66,0.18,1.31,0.27,1.95,0.27c0.86,0,1.58-0.14,2.17-0.42c0.59-0.28,1.06-0.68,1.42-1.21
			C215.25,238.89,215.5,238.25,215.65,237.51z M223.58,222.9c0.92-0.78,1.86-1.35,2.83-1.7c0.97-0.36,1.98-0.54,3.04-0.54
			c1.08,0,2.15,0.21,3.21,0.64c1.06,0.43,1.96,0.96,2.7,1.6l-3.74,9.18h-4.28L223.58,222.9z"/>
		<rect x="28.29" y="213.01" class="st0" width="2.46" height="2.46"/>
		<polygon class="st0" points="38.49,250.19 34.8,250.19 26.65,258.78 26.65,250.19 23.64,250.19 23.64,267.28 26.65,267.28 
			26.65,262.32 29.32,259.59 35.16,267.28 38.81,267.28 31.37,257.54 		"/>
		<rect x="41.55" y="250.19" class="st0" width="3.01" height="17.09"/>
		<polygon class="st0" points="61.15,262 51.98,250.19 49.19,250.19 49.19,267.28 52.15,267.28 52.15,255.12 61.59,267.28 
			64.11,267.28 64.11,250.19 61.15,250.19 		"/>
		<path class="st0" d="M76.57,260.34h4.38v3.2c-1.05,0.78-2.52,1.29-4.13,1.29c-3.5,0-5.82-2.59-5.82-6.1v-0.05
			c0-3.27,2.39-6.03,5.55-6.03c2.18,0,3.47,0.71,4.79,1.83l1.91-2.27c-1.76-1.49-3.6-2.32-6.58-2.32c-5.16,0-8.83,4.05-8.83,8.84
			v0.05c0,4.98,3.52,8.79,8.88,8.79c3.03,0,5.46-1.22,7.14-2.66v-7.18h-7.29V260.34z"/>
		<path class="st0" d="M94.39,250.19h-6.38v17.09h6.38c5.38,0,9.1-3.73,9.1-8.55v-0.05C103.49,253.88,99.77,250.19,94.39,250.19z
			 M100.34,258.78c0,3.34-2.35,5.76-5.94,5.76h-3.37v-11.62h3.37c3.6,0,5.94,2.47,5.94,5.81V258.78z"/>
		<path class="st0" d="M115.28,249.89c-5.26,0-8.97,4.03-8.97,8.84v0.05c0,4.81,3.67,8.79,8.93,8.79c5.26,0,8.98-4.03,8.98-8.84
			v-0.05C124.21,253.88,120.54,249.89,115.28,249.89z M121.06,258.78c0,3.32-2.37,6.03-5.77,6.03c-3.4,0-5.82-2.76-5.82-6.08v-0.05
			c0-3.32,2.37-6.03,5.77-6.03c3.4,0,5.82,2.76,5.82,6.08V258.78z"/>
		<polygon class="st0" points="136.36,258.27 131.15,250.19 127.95,250.19 127.95,267.28 130.91,267.28 130.91,255.07 
			136.27,263.08 136.36,263.08 141.77,255.02 141.77,267.28 144.78,267.28 144.78,250.19 141.57,250.19 		"/>
		<path class="st0" d="M164.74,249.89c-5.26,0-8.97,4.03-8.97,8.84v0.05c0,4.81,3.67,8.79,8.93,8.79c5.26,0,8.98-4.03,8.98-8.84
			v-0.05C173.67,253.88,170,249.89,164.74,249.89z M170.51,258.78c0,3.32-2.37,6.03-5.77,6.03c-3.4,0-5.82-2.76-5.82-6.08v-0.05
			c0-3.32,2.37-6.03,5.77-6.03c3.4,0,5.82,2.76,5.82,6.08V258.78z"/>
		<polygon class="st0" points="177.41,267.28 180.42,267.28 180.42,260.32 189.05,260.32 189.05,257.59 180.42,257.59 
			180.42,252.92 190.15,252.92 190.15,250.19 177.41,250.19 		"/>
		<path class="st0" d="M207.4,257.37c-3.28-0.78-4.06-1.37-4.06-2.68v-0.05c0-1.12,1.03-2.03,2.79-2.03c1.57,0,3.11,0.61,4.65,1.76
			l1.61-2.27c-1.74-1.39-3.72-2.15-6.21-2.15c-3.4,0-5.85,2.03-5.85,4.95v0.05c0,3.15,2.06,4.22,5.7,5.1
			c3.18,0.73,3.86,1.39,3.86,2.61v0.05c0,1.29-1.17,2.15-3.03,2.15c-2.13,0-3.77-0.81-5.41-2.22l-1.81,2.15
			c2.06,1.83,4.52,2.73,7.14,2.73c3.6,0,6.11-1.9,6.11-5.1v-0.05C212.9,259.54,211.02,258.25,207.4,257.37z"/>
		<path class="st0" d="M222.12,250.07l-7.53,17.21h3.08l1.76-4.13h8.1l1.74,4.13h3.18l-7.53-17.21H222.12z M220.53,260.49l2.94-6.84
			l2.96,6.84H220.53z"/>
		<path class="st0" d="M245.85,260.03c0,3.15-1.64,4.76-4.31,4.76c-2.69,0-4.33-1.71-4.33-4.88v-9.72h-3.01v9.84
			c0,4.95,2.84,7.52,7.29,7.52c4.48,0,7.36-2.56,7.36-7.66v-9.69h-3.01V260.03z"/>
		<path class="st0" d="M259.65,250.19h-6.38v17.09h6.38c5.38,0,9.1-3.73,9.1-8.55v-0.05C268.74,253.88,265.03,250.19,259.65,250.19z
			 M265.59,258.78c0,3.34-2.35,5.76-5.94,5.76h-3.37v-11.62h3.37c3.6,0,5.94,2.47,5.94,5.81V258.78z"/>
		<rect x="272.55" y="250.19" class="st0" width="3.01" height="17.09"/>
		<path class="st0" d="M293.54,250.07l-7.53,17.21h3.08l1.76-4.13h8.1l1.74,4.13h3.18l-7.53-17.21H293.54z M291.95,260.49l2.94-6.84
			l2.96,6.84H291.95z"/>
		<path class="st0" d="M320.7,255.63v-0.05c0-1.49-0.51-2.76-1.42-3.69c-1.1-1.07-2.79-1.71-4.94-1.71h-7.63v17.09h3.01v-5.96h3.72
			h0.05l4.21,5.96h3.55l-4.62-6.47C319.01,260.12,320.7,258.44,320.7,255.63z M309.72,258.66v-5.74h4.38c2.23,0,3.55,1,3.55,2.83
			v0.05c0,1.73-1.37,2.86-3.52,2.86H309.72z"/>
		<path class="st0" d="M330.98,250.07l-7.53,17.21h3.08l1.76-4.13h8.1l1.74,4.13h3.18l-7.53-17.21H330.98z M329.39,260.49l2.94-6.84
			l2.96,6.84H329.39z"/>
		<path class="st0" d="M355,258.39c1.27-0.66,2.45-1.76,2.45-3.81v-0.05c0-1.15-0.39-2.07-1.15-2.83c-0.98-0.98-2.52-1.51-4.48-1.51
			h-7.68v17.09h7.92c3.82,0,6.33-1.63,6.33-4.69v-0.05C358.4,260.22,357.01,259.07,355,258.39z M347.1,252.85h4.33
			c1.93,0,3.01,0.83,3.01,2.17v0.05c0,1.56-1.3,2.32-3.23,2.32h-4.11V252.85z M355.39,262.27c0,1.54-1.25,2.34-3.3,2.34h-4.99v-4.69
			h4.77c2.37,0,3.52,0.86,3.52,2.3V262.27z"/>
		<rect x="362.13" y="250.19" class="st0" width="3.01" height="17.09"/>
		<path class="st0" d="M378.33,250.07h-2.79l-7.53,17.21h3.08l1.76-4.13h8.1l1.74,4.13h3.18L378.33,250.07z M373.95,260.49
			l2.94-6.84l2.96,6.84H373.95z"/>
	</g>
</g>
</svg>
